<?xml version="1.0" encoding="UTF-8" standalone="no"?>
<!-- Created with Inkscape (http://www.inkscape.org/) -->

<svg
        xmlns:dc="http://purl.org/dc/elements/1.1/"
        xmlns:cc="http://creativecommons.org/ns#"
        xmlns:rdf="http://www.w3.org/1999/02/22-rdf-syntax-ns#"
        xmlns="http://www.w3.org/2000/svg"
        xmlns:sodipodi="http://sodipodi.sourceforge.net/DTD/sodipodi-0.dtd"
        xmlns:inkscape="http://www.inkscape.org/namespaces/inkscape"
        width="512"
        height="512"
        viewBox="0 0 135.46666 135.46667"
        version="1.1"
        id="svg8"
        inkscape:version="0.92.4 (5da689c313, 2019-01-14)"
        sodipodi:docname="perf_icon.svg"
        inkscape:export-filename="/home/martino/Documents/Work/perf_icon.png"
        inkscape:export-xdpi="96"
        inkscape:export-ydpi="96">
  <defs
          id="defs2"/>
  <sodipodi:namedview
          id="base"
          pagecolor="#ffffff"
          bordercolor="#666666"
          borderopacity="1.0"
          inkscape:pageopacity="0.0"
          inkscape:pageshadow="2"
          inkscape:zoom="0.7"
          inkscape:cx="448.13116"
          inkscape:cy="292.56306"
          inkscape:document-units="px"
          inkscape:current-layer="layer1"
          showgrid="false"
          units="px"
          inkscape:window-width="1920"
          inkscape:window-height="1013"
          inkscape:window-x="0"
          inkscape:window-y="30"
          inkscape:window-maximized="1"/>
  <metadata
          id="metadata5">
    <rdf:RDF>
      <cc:Work
              rdf:about="">
        <dc:format>image/svg+xml</dc:format>
        <dc:type
                rdf:resource="http://purl.org/dc/dcmitype/StillImage"/>
        <dc:title></dc:title>
      </cc:Work>
    </rdf:RDF>
  </metadata>
  <g
          inkscape:label="Layer 1"
          inkscape:groupmode="layer"
          id="layer1"
          transform="translate(0,-161.53331)">
    <path
            style="fill:#060606;stroke-width:0.99999994"
            d="M 60.546144,294.55864 C 49.880728,293.20205 39.668234,289.38933 30.770635,283.4423 25.823807,280.13591 16.775566,271.09455 13.466661,266.15148 8.5784616,258.84916 5.1178934,250.67913 3.2543755,242.0414 c -1.3153579,-6.09692 -1.3153579,-19.55211 0,-25.64904 2.8703682,-13.30468 8.5655165,-23.73844 18.2268465,-33.39243 9.661329,-9.65398 20.103038,-15.3448 33.417836,-18.213 6.101563,-1.31435 19.566987,-1.31435 25.668549,0 13.314798,2.8682 23.756493,8.55902 33.417823,18.213 9.66134,9.65399 15.35648,20.08775 18.22687,33.39243 1.31534,6.09693 1.31534,19.55212 0,25.64904 -2.87039,13.30468 -8.56553,23.73844 -18.22687,33.39243 -9.48967,9.48245 -19.470584,15.01658 -32.391094,17.95989 -4.285811,0.97629 -16.999195,1.67993 -21.048192,1.16492 z m 13.078723,-7.91085 c 13.526,-1.54826 25.563516,-7.28348 34.928783,-16.64163 14.48045,-14.46944 20.19411,-35.36148 15.11116,-55.25421 -3.3947,-13.28566 -12.32037,-25.85055 -23.771922,-33.46437 -23.081176,-15.346 -53.450157,-12.37485 -72.979868,7.14002 -19.5297111,19.51486 -22.5031305,49.86076 -7.145441,72.92439 9.188446,13.79889 24.828219,23.33546 41.43852,25.26774 5.306757,0.61733 7.232755,0.62169 12.418768,0.0281 z M 30.257265,257.11944 c 0,-9.47199 0.125828,-11.54871 0.686699,-11.33363 0.377685,0.14484 2.572345,0.68681 4.877024,1.20442 l 4.19033,0.94113 v 10.3925 10.39252 h -4.877032 -4.877021 z m 14.491875,1.46557 0.13912,-10.13136 4.686637,-0.14657 4.686638,-0.14658 0.208291,4.7635 c 0.114477,2.61991 0.116224,7.24504 0.0039,10.27804 l -0.204488,5.51454 h -4.829657 -4.829638 l 0.13912,-10.13136 z m 14.770257,-0.62144 v -10.75282 l 2.181827,-0.55012 c 1.199997,-0.30257 3.394669,-0.99613 4.87702,-1.54125 l 2.695192,-0.99113 v 12.29406 12.29407 h -4.87702 -4.877019 z m 14.887759,-2.76591 v -13.51873 l 3.465259,-2.36181 c 1.905878,-1.29902 4.100531,-2.85259 4.877019,-3.45243 l 1.411762,-1.09059 v 16.97114 16.97114 h -4.877019 -4.877021 z m 14.716627,13.17673 c -0.188209,-0.18807 -0.342249,-8.92949 -0.342249,-19.42533 v -19.08334 l 2.358103,-3.51386 c 3.216415,-4.79288 4.463814,-7.37082 6.184355,-12.78089 l 1.468282,-4.61682 0.133304,29.23989 c 0.07336,16.08194 0.02271,29.52844 -0.112349,29.88112 -0.262018,0.68436 -9.033023,0.95525 -9.689524,0.29923 z M 43.604907,245.82816 c -7.016988,-0.81431 -13.347642,-2.43728 -13.347642,-3.42189 0,-0.45293 1.774239,-0.62691 6.545477,-0.64177 7.471025,-0.0233 11.053147,-0.78216 17.069588,-3.6161 11.517791,-5.42528 20.664788,-17.11005 23.341275,-29.81713 l 0.347294,-1.64883 -5.177804,-0.14657 -5.177805,-0.14658 9.283187,-8.12084 c 6.013336,-5.26042 9.552151,-8.0177 10.046811,-7.82802 0.420017,0.16112 4.8003,3.81541 9.733977,8.12082 l 8.970335,7.82804 -4.34224,0.14774 -4.342231,0.14774 -0.329094,1.64775 c -3.623451,18.1417 -18.568644,32.56047 -37.79049,36.45945 -4.081885,0.82798 -11.911536,1.3751 -14.830638,1.03634 z"
            id="path8517"
            inkscape:connector-curvature="0"/>
  </g>
</svg>
